<svg width="12" height="12" viewBox="0 0 12 12" fill="none" xmlns="http://www.w3.org/2000/svg">
<path d="M5.28501 0.295797L0.285013 5.2958C0.193973 5.3909 0.122608 5.50304 0.0750132 5.6258C-0.0250048 5.86926 -0.0250048 6.14233 0.0750133 6.3858C0.122608 6.50855 0.193973 6.62069 0.285013 6.7158L5.28501 11.7158C5.37825 11.809 5.48894 11.883 5.61076 11.9335C5.73259 11.9839 5.86315 12.0099 5.99501 12.0099C6.26132 12.0099 6.51671 11.9041 6.70501 11.7158C6.89332 11.5275 6.9991 11.2721 6.9991 11.0058C6.9991 10.7395 6.89332 10.4841 6.70501 10.2958L3.40501 7.0058L10.995 7.0058C11.2602 7.0058 11.5146 6.90044 11.7021 6.7129C11.8897 6.52537 11.995 6.27101 11.995 6.0058C11.995 5.74058 11.8897 5.48623 11.7021 5.29869C11.5146 5.11115 11.2602 5.0058 10.995 5.0058L3.40501 5.0058L6.70501 1.7158C6.79874 1.62283 6.87314 1.51223 6.9239 1.39037C6.97467 1.26851 7.00081 1.13781 7.00081 1.0058C7.00081 0.873785 6.97467 0.743079 6.9239 0.621219C6.87314 0.49936 6.79874 0.38876 6.70501 0.295797C6.61205 0.202069 6.50145 0.127673 6.37959 0.076904C6.25773 0.0261352 6.12703 -2.17517e-06 5.99501 -2.1694e-06C5.863 -2.16363e-06 5.7323 0.0261352 5.61044 0.0769041C5.48858 0.127673 5.37798 0.202069 5.28501 0.295797Z" fill="#141413"/>
</svg>
