<svg width="20" height="20" viewBox="0 0 20 20" fill="none" xmlns="http://www.w3.org/2000/svg">
<path d="M10.0001 19.2857C15.0001 19.2857 18.5716 17.5171 18.5716 13.5799C18.5716 9.30138 16.4287 6.44852 12.143 4.30852L13.8287 2.13995C13.9146 1.9977 13.9612 1.83524 13.9638 1.66911C13.9664 1.50299 13.925 1.33913 13.8437 1.19423C13.7624 1.04934 13.6441 0.928581 13.501 0.844263C13.3578 0.759945 13.1949 0.715078 13.0287 0.714233H6.97157C6.80577 0.715957 6.64336 0.761371 6.50072 0.845893C6.35808 0.930416 6.24025 1.05106 6.15912 1.19565C6.07798 1.34025 6.03641 1.50368 6.03859 1.66947C6.04078 1.83526 6.08665 1.99754 6.17157 2.13995L7.85728 4.32281C3.57157 6.47709 1.42871 9.32995 1.42871 13.6085C1.42871 17.5171 5.00014 19.2857 10.0001 19.2857Z" fill="#D7E0FF"/>
<path d="M10.0001 19.2857C15.0001 19.2857 18.5716 17.5171 18.5716 13.5799C18.5716 9.30138 16.4287 6.44852 12.143 4.30852L13.8287 2.13995C13.9146 1.9977 13.9612 1.83524 13.9638 1.66911C13.9664 1.50299 13.925 1.33913 13.8437 1.19423C13.7624 1.04934 13.6441 0.928581 13.501 0.844263C13.3578 0.759945 13.1949 0.715078 13.0287 0.714233H6.97157C6.80577 0.715957 6.64337 0.761371 6.50072 0.845893C6.35808 0.930416 6.24025 1.05106 6.15912 1.19565C6.07798 1.34025 6.03641 1.50368 6.03859 1.66947C6.04078 1.83526 6.08665 1.99754 6.17157 2.13995L7.85728 4.32281C3.57157 6.47709 1.42871 9.32995 1.42871 13.6085C1.42871 17.5171 5.00014 19.2857 10.0001 19.2857Z" stroke="#4147D5" stroke-linecap="round" stroke-linejoin="round"/>
<path d="M11.9759 9.72282C11.8699 9.42035 11.6724 9.15837 11.4108 8.97328C11.1492 8.78818 10.8364 8.68916 10.5159 8.68997H9.31874C8.97763 8.68929 8.64834 8.81484 8.39427 9.04243C8.1402 9.27003 7.97931 9.58358 7.9426 9.9227C7.90588 10.2618 7.99593 10.6025 8.19541 10.8792C8.39488 11.1559 8.68968 11.3491 9.02302 11.4214L10.8473 11.8214C11.219 11.9043 11.5472 12.1213 11.769 12.4309C11.9908 12.7405 12.0908 13.1209 12.0498 13.4996C12.0088 13.8782 11.8297 14.2285 11.5467 14.4834C11.2637 14.7383 10.8967 14.88 10.5159 14.8814H9.48588C8.81159 14.8814 8.23874 14.45 8.02588 13.8485M10.0002 8.68997V7.14282M10.0002 16.4285V14.8814" stroke="#4147D5" stroke-linecap="round" stroke-linejoin="round"/>
</svg>
