<svg width="42" height="42" viewBox="0 0 42 42" fill="none" xmlns="http://www.w3.org/2000/svg">
<path d="M11.5321 9.39708L12.8753 8.52455C14.1324 7.70786 15.8001 8.01697 16.7709 9.24662L18.7039 11.6965C19.5463 12.763 19.6503 14.2605 18.9611 15.3977L17.0463 18.5621C17.6078 19.9888 18.4973 21.3009 19.7147 22.4983C20.8788 23.6602 22.2637 24.5774 23.7878 25.1958L26.6139 23.3067C27.6846 22.5924 29.0914 22.6938 30.1046 23.5579L32.4645 25.5709C33.6441 26.576 33.958 28.3201 33.2016 29.652L32.3906 31.0795C31.5836 32.5002 30.1067 33.3402 28.5108 33.2832C24.7458 33.1496 20.6774 30.8093 16.3057 26.2622C11.9278 21.7071 9.65764 17.4479 9.49522 13.4848C9.42698 11.8174 10.2028 10.2614 11.5348 9.39633" fill="white"/>
</svg>
