<svg width="24" height="24" viewBox="0 0 24 24" fill="none" xmlns="http://www.w3.org/2000/svg">
<path d="M13.5438 10.4561C12.7244 9.63783 11.6138 9.17822 10.4558 9.17822C9.29782 9.17822 8.18718 9.63783 7.36781 10.4561L4.27881 13.5441C3.45969 14.3632 2.99951 15.4742 2.99951 16.6326C2.99951 17.791 3.45969 18.902 4.27881 19.7211C5.09793 20.5402 6.2089 21.0004 7.36731 21.0004C8.52572 21.0004 9.63669 20.5402 10.4558 19.7211L11.9998 18.1771" stroke="#195B91" stroke-width="2" stroke-linecap="round" stroke-linejoin="round"/>
<path d="M10.4561 13.5441C11.2754 14.3623 12.3861 14.8219 13.5441 14.8219C14.702 14.8219 15.8127 14.3623 16.6321 13.5441L19.7211 10.4561C20.5402 9.63693 21.0004 8.52597 21.0004 7.36755C21.0004 6.20914 20.5402 5.09818 19.7211 4.27905C18.9019 3.45993 17.791 2.99976 16.6326 2.99976C15.4741 2.99976 14.3632 3.45993 13.5441 4.27905L12.0001 5.82305" stroke="#195B91" stroke-width="2" stroke-linecap="round" stroke-linejoin="round"/>
</svg>
