<svg width="24" height="24" viewBox="0 0 24 24" fill="none" xmlns="http://www.w3.org/2000/svg">
<path d="M17.03 6.96972C16.9316 6.87123 16.8077 6.80208 16.6722 6.77002C16.5367 6.73797 16.3949 6.74427 16.2628 6.78822L9.51278 9.03822C9.4022 9.07503 9.30173 9.1371 9.21932 9.21951C9.13691 9.30192 9.07484 9.4024 9.03803 9.51297L6.78803 16.263C6.74396 16.3951 6.73757 16.5369 6.76956 16.6725C6.80156 16.8081 6.87068 16.9321 6.96918 17.0306C7.06768 17.1291 7.19167 17.1982 7.32725 17.2302C7.46283 17.2622 7.60464 17.2558 7.73678 17.2117L14.4868 14.9617C14.5974 14.9249 14.6978 14.8628 14.7802 14.7804C14.8627 14.698 14.9247 14.5976 14.9615 14.487L17.2115 7.73697C17.2555 7.60484 17.2618 7.46308 17.2297 7.32757C17.1977 7.19207 17.1285 7.06816 17.03 6.96972ZM8.68553 15.315L10.343 10.344L13.6573 13.6582L8.68553 15.315Z" fill="#667078"/>
<path d="M12 22.5C9.9233 22.5 7.89323 21.8842 6.16652 20.7304C4.4398 19.5767 3.09399 17.9368 2.29927 16.0182C1.50455 14.0996 1.29661 11.9884 1.70176 9.95156C2.1069 7.91476 3.10693 6.04383 4.57538 4.57538C6.04383 3.10693 7.91476 2.1069 9.95156 1.70176C11.9884 1.29661 14.0996 1.50455 16.0182 2.29927C17.9368 3.09399 19.5767 4.4398 20.7304 6.16652C21.8842 7.89323 22.5 9.9233 22.5 12C22.4968 14.7838 21.3896 17.4527 19.4211 19.4211C17.4527 21.3896 14.7838 22.4968 12 22.5ZM12 3C10.22 3 8.47992 3.52785 6.99987 4.51678C5.51983 5.50571 4.36628 6.91132 3.68509 8.55585C3.0039 10.2004 2.82567 12.01 3.17294 13.7558C3.5202 15.5016 4.37737 17.1053 5.63604 18.364C6.89472 19.6226 8.49836 20.4798 10.2442 20.8271C11.99 21.1743 13.7996 20.9961 15.4442 20.3149C17.0887 19.6337 18.4943 18.4802 19.4832 17.0001C20.4722 15.5201 21 13.78 21 12C20.9972 9.61391 20.0481 7.32634 18.3609 5.63911C16.6737 3.95189 14.3861 3.00278 12 3Z" fill="#667078"/>
</svg>
