<svg width="40" height="40" viewBox="0 0 40 40" fill="none" xmlns="http://www.w3.org/2000/svg">
<path fill-rule="evenodd" clip-rule="evenodd" d="M22.9667 1.96251C25.165 1.42084 27.5442 2.22501 28.755 4.29418C29.0658 4.82584 29.4067 5.44584 29.7675 6.15918C27.2358 5.99168 23.48 5.83334 18.3333 5.83334C15.43 5.83334 12.97 5.88334 10.9217 5.95834C14.7733 4.35001 18.9642 2.94751 22.9667 1.96251ZM6.71417 38.4075C9.195 38.5792 13.0042 38.75 18.3333 38.75C23.6625 38.75 27.4717 38.5792 29.9525 38.4075C32.6842 38.2183 34.8392 36.1433 35.0633 33.3892C35.1067 32.8631 35.1483 32.2767 35.1883 31.63C34.4142 31.6525 33.5208 31.6667 32.5 31.6667C31.105 31.6667 29.9467 31.64 29.0083 31.6025C25.9758 31.4808 23.5275 29.1583 23.3892 26.0467C23.3558 25.2858 23.3333 24.385 23.3333 23.3333C23.3333 22.2817 23.3558 21.3808 23.3892 20.62C23.5275 17.5083 25.9758 15.1867 29.0083 15.0642C30.1717 15.0196 31.3358 14.9982 32.5 15C33.5208 15 34.4142 15.0142 35.1883 15.0367C35.1483 14.3895 35.1067 13.8033 35.0633 13.2783C34.8392 10.5233 32.6842 8.44834 29.9525 8.25918C27.4717 8.08751 23.6625 7.91668 18.3333 7.91668C13.0042 7.91668 9.195 8.08751 6.71417 8.25918C3.9825 8.44834 1.8275 10.5233 1.60333 13.2775C1.42167 15.5092 1.25 18.8125 1.25 23.3333C1.25 27.8542 1.42167 31.1583 1.60333 33.3892C1.8275 36.1433 3.9825 38.2183 6.71417 38.4075ZM25.8867 25.9358C25.9658 27.7108 27.3342 29.0333 29.1083 29.1042C30.0125 29.1408 31.1367 29.1667 32.5 29.1667C33.8633 29.1667 34.9875 29.1408 35.8917 29.1042C37.6667 29.0333 39.0342 27.7108 39.1133 25.9358C39.145 25.2133 39.1667 24.3492 39.1667 23.3333C39.1667 22.3175 39.145 21.4533 39.1133 20.7308C39.0342 18.9558 37.6658 17.6333 35.8917 17.5625C34.7616 17.5191 33.6309 17.4983 32.5 17.5C31.1367 17.5 30.0125 17.5258 29.1083 17.5625C27.3333 17.6333 25.9658 18.9558 25.8867 20.7308C25.855 21.4533 25.8333 22.3167 25.8333 23.3333C25.8333 24.35 25.855 25.2133 25.8867 25.9358ZM31.6667 21.25C31.9982 21.25 32.3161 21.3817 32.5505 21.6161C32.785 21.8505 32.9167 22.1685 32.9167 22.5V24.1667C32.9167 24.4982 32.785 24.8161 32.5505 25.0506C32.3161 25.285 31.9982 25.4167 31.6667 25.4167C31.3351 25.4167 31.0172 25.285 30.7828 25.0506C30.5484 24.8161 30.4167 24.4982 30.4167 24.1667V22.5C30.4167 22.1685 30.5484 21.8505 30.7828 21.6161C31.0172 21.3817 31.3351 21.25 31.6667 21.25Z" fill="#195B91"/>
</svg>
