<svg width="34" height="34" viewBox="0 0 34 34" fill="none" xmlns="http://www.w3.org/2000/svg">
<path d="M4.35621 8.42822C4.35621 8.42822 2.64293 8.56369 2.41449 8.94885C2.1834 9.334 2.17012 9.92635 2.17012 10.5771C2.17012 11.2306 2.14355 12.7287 2.14355 12.7287L2.55262 13.6079C2.55262 13.6079 2.62965 24.8146 2.62965 25.1626C2.62965 25.5079 2.62965 25.9303 3.12902 26.1985C3.6284 26.4668 16.32 32.5974 16.7157 32.7621C17.3134 33.0092 17.5976 32.9162 17.5976 32.9162L31.6996 9.33135C31.6996 9.33135 31.6545 8.68588 31.0675 8.53182C30.7301 8.44682 4.35621 8.42822 4.35621 8.42822Z" fill="#F5B03E"/>
<path d="M17.4461 16.1819C17.231 16.7742 17.3292 22.8995 17.3664 27.3541C17.4036 31.806 17.2522 32.7277 17.3664 32.8817C17.4807 33.0358 17.7914 32.887 18.6707 32.4966C20.3042 31.7741 28.1508 27.8906 28.7272 27.5453C29.3036 27.2 30.7114 26.4855 30.9425 26.1003C31.1736 25.7152 31.2985 22.1319 31.3755 19.2552C31.4525 16.3758 31.5296 14.0728 31.5296 14.0728L31.8749 13.0369C31.8749 13.0369 31.8005 10.2372 31.7872 9.92907C31.7633 9.41907 31.7075 9.1561 31.5774 9.21985C31.3914 9.30751 29.8402 10.5799 25.7336 12.5774C23.1544 13.8284 17.5949 15.7728 17.4461 16.1819Z" fill="#E07F14"/>
<path d="M17.4835 2.9777C16.3333 2.92458 13.1857 4.74411 10.1522 5.7402C7.11879 6.73629 2.53941 8.73911 2.49957 8.85598C2.46238 8.9702 4.343 9.81223 5.54363 10.3886C6.97004 11.0713 12.4153 13.6505 13.4114 14.0729C14.4102 14.4952 16.7902 15.4833 17.1727 15.4541C17.7093 15.4169 22.7774 13.4194 25.3486 12.1922C27.9199 10.965 31.1339 9.06317 31.1764 8.60098C31.195 8.39379 26.4483 6.62208 24.0816 5.55161C19.5128 3.48239 18.3255 3.01754 17.4835 2.9777Z" fill="#FDD717"/>
<path d="M2.15699 13.2201C2.19684 13.7195 2.47043 13.8975 3.16637 14.2003C3.8623 14.5031 17.0187 21.3376 17.3215 21.3376C17.6243 21.3376 17.7146 20.2539 17.3826 20.2831C17.202 20.299 12.8803 18.2457 8.84277 16.1951C5.41621 14.4579 2.13574 12.7234 2.13574 12.7234L2.15699 13.2201Z" fill="#E37D14"/>
<path d="M31.8775 13.0129C31.8775 13.0129 17.8286 20.1583 17.6905 20.2273C17.5524 20.2964 17.3319 20.2725 17.3319 20.2725L17.3213 21.3376C17.3213 21.3376 17.4514 21.3668 17.5975 21.3217C17.6825 21.2951 31.4711 14.1578 31.5322 14.1365C31.5933 14.1153 31.8589 13.9559 31.9147 13.6186C31.9625 13.3476 31.8775 13.0129 31.8775 13.0129Z" fill="#BA5E0D"/>
<path d="M7.66586 25.8772L10.4151 29.9679L11.6184 30.3796C11.6184 30.3796 11.7166 25.9171 11.7565 22.61C11.8123 17.7783 11.791 13.3716 11.8601 13.1219C11.9743 12.6996 17.3213 10.965 17.3213 10.965C17.3213 10.965 23.3616 12.859 23.5529 13.2813C23.6379 13.4672 23.5715 16.5963 23.5529 20.2433C23.529 24.8493 23.537 30.1671 23.537 30.1671C23.537 30.1671 24.1612 30.1644 24.2355 29.9333C24.3126 29.7022 24.6207 27.9199 24.6207 27.9199L26.9635 12.3038L28.1535 10.7685L26.5013 7.62348L19.7226 4.28723L17.393 4.81051L14.8723 4.42536L6.87695 10.1708L7.8093 12.0621L10.0963 13.2282L7.66586 25.8772Z" fill="#AF0F1B"/>
<path d="M24.2463 13.1192C24.1002 13.4406 24.1852 30.0023 24.1852 30.0023C24.1852 30.0023 24.9157 29.5986 25.856 29.147C26.791 28.6981 27.463 28.4192 27.5215 28.1854C27.5799 27.9517 27.6835 11.5732 27.6835 11.5732L24.2463 13.1192Z" fill="#DC0D28"/>
<path d="M10.9835 12.7766C11.0712 12.8722 10.9277 30.0581 10.7498 30.098C10.609 30.1325 7.4082 28.7034 7.4082 28.5573C7.4082 28.4112 7.66586 11.9877 7.66586 11.9877C7.66586 11.9877 10.7232 12.4844 10.9835 12.7766ZM17.3266 3.78516C16.4421 3.78516 15.4646 4.0375 15.1804 4.77859C14.8962 5.51969 14.8324 6.62203 14.8324 7.44547C14.8324 8.23437 14.7049 10.2531 17.1354 10.2212C19.5659 10.1894 19.6376 9.28891 19.6748 7.30203C19.7066 5.64453 19.4862 4.83969 19.2657 4.49437C19.0691 4.18359 18.4157 3.78516 17.3266 3.78516Z" fill="#FF2A23"/>
<path d="M15.9215 7.88639C16.474 7.91826 16.7104 6.70436 17.1354 6.04029C17.5604 5.37889 18.004 4.93529 17.8446 4.58998C17.7145 4.30311 16.559 4.21014 15.9348 5.07873C15.4965 5.69232 15.4195 7.85717 15.9215 7.88639Z" fill="#FCC9D2"/>
<path d="M19.4785 4.36153C19.4785 4.36153 20.2621 5.15841 20.4666 6.72028C20.6712 8.28216 20.4348 9.49606 20.4348 9.49606C20.4348 9.49606 24.3288 9.37919 25.6729 9.63684C26.9984 9.8945 27.4605 10.4789 27.4605 10.9039C27.4605 11.3289 26.5893 11.6715 25.7048 11.6078C24.8202 11.544 24.2226 11.4962 24.111 11.7193C23.9995 11.9425 24.1588 12.2878 25.3887 12.3807C26.6185 12.4764 28.0396 12.3011 28.4805 10.7711C28.9215 9.24106 28.9374 6.59012 28.7807 4.68028C28.624 2.77044 28.2787 1.67872 27.4234 1.26434C26.5229 0.831374 24.2677 0.759655 22.1374 1.95762C20.0071 3.15559 19.4785 4.36153 19.4785 4.36153Z" fill="#FF2A23"/>
<path d="M23.8905 2.54472C23.6142 2.18878 22.7244 2.19941 22.2489 2.74925C21.7442 3.33363 21.6327 5.55691 22.2808 5.68441C23.0139 5.82785 22.8811 4.62722 23.4177 3.88613C23.9436 3.16097 24.1588 2.89269 23.8905 2.54472Z" fill="#FCC9D2"/>
<path d="M14.9759 4.43855C14.9759 4.43855 11.993 0.961516 8.585 1.01464C6.53437 1.04652 6.01375 2.22855 5.90219 2.7173C5.79062 3.20605 4.94062 8.06698 6.07484 10.6993C7.20906 13.3317 9.5625 12.649 9.93172 12.564C10.4045 12.4525 11.4112 12.1071 11.3156 11.7432C11.22 11.3793 7.87578 12.6889 7.8439 11.1907C7.81203 9.69261 10.2106 9.53323 11.3156 9.50136C12.4206 9.46948 14.3145 9.72183 14.3145 9.72183C14.3145 9.72183 13.9825 7.90761 14.203 6.61402C14.4234 5.32042 14.9759 4.43855 14.9759 4.43855Z" fill="#FF2A23"/>
<path d="M7.67112 2.27647C7.24612 2.7174 7.07081 5.25943 7.33909 6.52115C7.60737 7.78287 7.84378 8.31944 8.39628 8.21053C8.85847 8.11756 9.13737 5.64193 9.35784 4.77068C9.59425 3.841 10.1786 2.85287 9.94222 2.4199C9.58097 1.75584 8.11472 1.81693 7.67112 2.27647Z" fill="#FCC9D2"/>
</svg>
