<svg width="16" height="16" viewBox="0 0 16 16" fill="none" xmlns="http://www.w3.org/2000/svg">
<path d="M5.09185 1.47998C5.18553 1.38618 5.31262 1.33343 5.44519 1.33331H10.5545C10.6872 1.33331 10.8139 1.38598 10.9079 1.47998L14.5199 5.09198C14.6139 5.18531 14.6665 5.31331 14.6665 5.44531V10.5546C14.6664 10.6872 14.6136 10.8143 14.5199 10.908L10.9079 14.52C10.8142 14.6138 10.6871 14.6665 10.5545 14.6666H5.44519C5.31262 14.6665 5.18553 14.6138 5.09185 14.52L1.47852 10.908C1.38497 10.8142 1.33246 10.6871 1.33252 10.5546V5.44531C1.33252 5.31265 1.38519 5.18598 1.47919 5.09198L5.09119 1.47865L5.09185 1.47998ZM5.65319 2.33331L2.33319 5.65331V10.3466L5.65319 13.6666H10.3465L13.6665 10.3466V5.65331L10.3465 2.33331H5.65319ZM4.66652 7.83331C4.66652 7.7007 4.7192 7.57353 4.81297 7.47976C4.90673 7.38599 5.03391 7.33331 5.16652 7.33331H10.8332C10.9658 7.33331 11.093 7.38599 11.1867 7.47976C11.2805 7.57353 11.3332 7.7007 11.3332 7.83331C11.3332 7.96592 11.2805 8.0931 11.1867 8.18687C11.093 8.28063 10.9658 8.33331 10.8332 8.33331H5.16652C5.03391 8.33331 4.90673 8.28063 4.81297 8.18687C4.7192 8.0931 4.66652 7.96592 4.66652 7.83331Z" fill="#E41313"/>
</svg>
