<svg width="34" height="34" viewBox="0 0 34 34" fill="none" xmlns="http://www.w3.org/2000/svg">
<path d="M28.333 5.66663H5.66634C4.10801 5.66663 2.84717 6.94163 2.84717 8.49996L2.83301 25.5C2.83301 27.0583 4.10801 28.3333 5.66634 28.3333H28.333C29.8913 28.3333 31.1663 27.0583 31.1663 25.5V8.49996C31.1663 6.94163 29.8913 5.66663 28.333 5.66663ZM27.7663 11.6875L17.7505 17.9491C17.2972 18.2325 16.7022 18.2325 16.2488 17.9491L6.23301 11.6875C6.09096 11.6077 5.96656 11.5 5.86735 11.3708C5.76814 11.2416 5.69618 11.0936 5.65582 10.9357C5.61547 10.7779 5.60755 10.6135 5.63256 10.4526C5.65757 10.2916 5.71498 10.1374 5.80132 9.99922C5.88766 9.86108 6.00113 9.74189 6.13487 9.64887C6.26861 9.55585 6.41983 9.49093 6.57938 9.45805C6.73893 9.42516 6.90349 9.425 7.06311 9.45755C7.22273 9.49011 7.37408 9.55471 7.50801 9.64746L16.9997 15.5833L26.4913 9.64746C26.6253 9.55471 26.7766 9.49011 26.9362 9.45755C27.0959 9.425 27.2604 9.42516 27.42 9.45805C27.5795 9.49093 27.7307 9.55585 27.8645 9.64887C27.9982 9.74189 28.1117 9.86108 28.198 9.99922C28.2844 10.1374 28.3418 10.2916 28.3668 10.4526C28.3918 10.6135 28.3839 10.7779 28.3435 10.9357C28.3032 11.0936 28.2312 11.2416 28.132 11.3708C28.0328 11.5 27.9084 11.6077 27.7663 11.6875Z" fill="white"/>
</svg>
