<svg width="24" height="24" viewBox="0 0 24 24" fill="none" xmlns="http://www.w3.org/2000/svg">
<g clip-path="url(#clip0_1_1264)">
<path fill-rule="evenodd" clip-rule="evenodd" d="M7.57476 8.63552C7.89961 8.96039 8.08368 9.39997 8.08723 9.85938C8.09079 10.3188 7.91354 10.7612 7.59376 11.091L6.35976 12.3255C4.89326 13.7915 4.90226 16.1715 6.36476 17.634C6.74206 18.0122 7.19579 18.3054 7.69559 18.494C8.19538 18.6826 8.7297 18.7622 9.26276 18.7275C10.1724 18.6716 11.03 18.2845 11.6738 17.6395L12.8888 16.4245C13.0513 16.262 13.2442 16.1331 13.4565 16.0451C13.6689 15.9572 13.8964 15.9119 14.1263 15.9119C14.3561 15.9119 14.5837 15.9572 14.796 16.0451C15.0083 16.1331 15.2013 16.262 15.3638 16.4245L16.0813 17.1425C16.2438 17.305 16.3727 17.498 16.4607 17.7103C16.5486 17.9226 16.5939 18.1502 16.5939 18.38C16.5939 18.6098 16.5486 18.8374 16.4607 19.0498C16.3727 19.2621 16.2438 19.455 16.0813 19.6175L14.8718 20.827C11.6413 24.057 6.40326 24.057 3.17276 20.827C-0.0582383 17.596 -0.0582383 12.358 3.17276 9.12702L4.38226 7.91802C4.54477 7.7555 4.73769 7.62658 4.95002 7.53862C5.16236 7.45067 5.38993 7.4054 5.61976 7.4054C5.84959 7.4054 6.07717 7.45067 6.2895 7.53862C6.50183 7.62658 6.69476 7.7555 6.85726 7.91802L7.57476 8.63552Z" fill="#8FBFFA"/>
<path d="M9.12789 3.173C12.3584 -0.057503 17.5964 -0.057503 20.8269 3.173C24.0579 6.4035 24.0579 11.6415 20.8269 14.8725L19.6174 16.082C19.4549 16.2445 19.262 16.3734 19.0496 16.4614C18.8373 16.5494 18.6097 16.5946 18.3799 16.5946C18.1501 16.5946 17.9225 16.5494 17.7101 16.4614C17.4978 16.3734 17.3049 16.2445 17.1424 16.082L16.4249 15.364C16.2624 15.2015 16.1334 15.0086 16.0455 14.7962C15.9575 14.5839 15.9123 14.3563 15.9123 14.1265C15.9123 13.8967 15.9575 13.6691 16.0455 13.4568C16.1334 13.2444 16.2624 13.0515 16.4249 12.889L17.6399 11.674C19.1059 10.208 19.0974 7.8285 17.6349 6.3655C16.9431 5.67271 16.0078 5.27793 15.0289 5.2655C14.5278 5.25726 14.0301 5.34996 13.5656 5.53808C13.101 5.7262 12.6791 6.00589 12.3249 6.3605L11.0804 7.6055C10.7496 7.92051 10.3088 8.09372 9.85203 8.08811C9.39529 8.0825 8.95883 7.89854 8.63589 7.5755L7.91839 6.8575C7.75587 6.69499 7.62695 6.50207 7.53899 6.28973C7.45103 6.0774 7.40576 5.84983 7.40576 5.62C7.40576 5.39017 7.45103 5.16259 7.53899 4.95026C7.62695 4.73793 7.75587 4.545 7.91839 4.3825L9.12789 3.173Z" fill="#8FBFFA"/>
<path fill-rule="evenodd" clip-rule="evenodd" d="M8.66129 12.145L8.63529 12.1715L7.42029 13.3865C6.54379 14.263 6.54529 15.693 7.42579 16.5735C7.84787 16.9965 8.42059 17.2346 9.01815 17.2357C9.61571 17.2367 10.1892 17.0005 10.6128 16.579L16.5778 10.614C17.4553 9.73648 17.4533 8.30648 16.5728 7.42648C16.1579 7.01016 15.5965 6.77273 15.0088 6.76498C14.7082 6.75983 14.4096 6.81526 14.1308 6.92796C13.8521 7.04067 13.5989 7.20834 13.3863 7.42098L8.66129 12.145Z" fill="#2859C5"/>
</g>
<defs>
<clipPath id="clip0_1_1264">
<rect width="24" height="24" fill="white"/>
</clipPath>
</defs>
</svg>
