<svg width="23" height="23" viewBox="0 0 23 23" fill="none" xmlns="http://www.w3.org/2000/svg">
<path d="M14.0531 21.3168C11.6446 21.9466 9.09248 21.6647 6.86688 20.5229C4.62569 19.373 2.90109 17.4407 2.01079 15.082C1.18629 12.8974 1.13293 10.5722 1.85644 8.35755C2.39289 6.71544 3.34523 5.23508 4.59662 4.06923L4.36581 5.98469L5.71068 6.14682L6.21951 1.92462L2.05032 1.43169L1.89125 2.77692L3.76009 2.99793C2.29919 4.33144 1.18885 6.03923 0.568889 7.93695C0.171106 9.15455 -0.0197665 10.4186 0.00161627 11.6941C0.0237627 13.0139 0.273348 14.3147 0.743544 15.5604C1.75271 18.2342 3.7078 20.4247 6.24862 21.7282C7.89082 22.5707 9.68999 23 11.4994 23C12.4695 23 13.4426 22.8766 14.3959 22.6273L14.0531 21.3168ZM22.2999 15.4287C23.2418 12.8502 23.2258 10.0135 22.255 7.44128C21.2037 4.65577 19.146 2.41449 16.4609 1.13027C13.7844 -0.149825 10.7604 -0.349817 7.94576 0.567216L8.36542 1.85517C10.8477 1.0464 13.5151 1.22298 15.8764 2.35232C18.245 3.48516 20.0601 5.4623 20.9876 7.91965C21.8439 10.1885 21.858 12.6902 21.0275 14.964C20.3707 16.7621 19.2213 18.3307 17.7299 19.4929L17.9809 17.4096L16.6361 17.2475L16.1272 21.4697L20.2963 21.9627L20.4554 20.6174L18.7458 20.4152C20.3584 19.1039 21.5864 17.3809 22.2999 15.4287Z" fill="#667078"/>
<path d="M15.2657 9.05302C15.6562 8.56251 15.8904 7.94228 15.8904 7.26805C15.8904 5.68477 14.6023 4.39673 13.019 4.39673C11.9486 4.39673 11.0138 4.98592 10.52 5.85664C12.7087 6.01324 14.4415 7.84372 14.4415 10.0715C14.4412 10.5058 14.3739 10.9374 14.2418 11.3511C14.6864 11.6925 15.0777 12.1032 15.4022 12.5722C15.6076 12.8695 15.7828 13.1866 15.9251 13.5188L17.8709 13.5163V12.8399C17.8709 11.1146 16.7877 9.63772 15.2657 9.05302Z" fill="#667078"/>
<path d="M12.4478 11.8749C12.8472 11.3816 13.087 10.7542 13.087 10.0716C13.087 8.48828 11.7989 7.2002 10.2156 7.2002C8.63236 7.2002 7.34427 8.48828 7.34427 10.0716C7.34427 10.7556 7.58514 11.3843 7.98593 11.8781C6.49309 12.477 5.43604 13.939 5.43604 15.6434V16.3207H15.0056V15.6434C15.0056 13.9361 13.9448 12.4718 12.4478 11.8749Z" fill="#667078"/>
</svg>
