<svg width="31" height="31" viewBox="0 0 31 31" fill="none" xmlns="http://www.w3.org/2000/svg">
<path fill-rule="evenodd" clip-rule="evenodd" d="M3.79076 3.79064C3.94371 3.6377 4.15345 3.55031 4.36976 3.55031H8.7395C9.10167 3.55031 9.449 3.40644 9.70509 3.15035C9.96118 2.89426 10.1051 2.54693 10.1051 2.18476C10.1051 1.82259 9.96118 1.47526 9.70509 1.21917C9.449 0.963084 9.10167 0.819214 8.7395 0.819214H4.36976C3.42813 0.819214 2.52506 1.19327 1.85923 1.85911C1.1934 2.52494 0.819336 3.428 0.819336 4.36963V8.73938C0.819336 9.10155 0.963206 9.44888 1.2193 9.70497C1.47538 9.96106 1.82272 10.1049 2.18488 10.1049C2.54705 10.1049 2.89438 9.96106 3.15047 9.70497C3.40656 9.44888 3.55043 9.10155 3.55043 8.73938V4.36963C3.55043 4.15115 3.63782 3.94358 3.79076 3.79064ZM20.4832 2.18476C20.4832 1.43098 21.095 0.819214 21.8487 0.819214H26.2185C27.1601 0.819214 28.0632 1.19327 28.729 1.85911C29.3949 2.52494 29.7689 3.428 29.7689 4.36963V8.73938C29.7689 9.10155 29.625 9.44888 29.369 9.70497C29.1129 9.96106 28.7655 10.1049 28.4034 10.1049C28.0412 10.1049 27.6939 9.96106 27.4378 9.70497C27.1817 9.44888 27.0378 9.10155 27.0378 8.73938V4.36963C27.0378 4.15233 26.9515 3.94394 26.7978 3.79028C26.6442 3.63663 26.4358 3.55031 26.2185 3.55031H21.8487C21.4866 3.55031 21.1392 3.40644 20.8832 3.15035C20.6271 2.89426 20.4832 2.54693 20.4832 2.18476ZM5.46219 8.73938C5.46219 7.87019 5.80748 7.03659 6.4221 6.42197C7.03671 5.80736 7.87031 5.46207 8.7395 5.46207H13.1093C13.9784 5.46207 14.812 5.80736 15.4267 6.42197C16.0413 7.03659 16.3866 7.87019 16.3866 8.73938V13.1091C16.3866 13.9783 16.0413 14.8119 15.4267 15.4265C14.812 16.0412 13.9784 16.3864 13.1093 16.3864H8.7395C7.87031 16.3864 7.03671 16.0412 6.4221 15.4265C5.80748 14.8119 5.46219 13.9783 5.46219 13.1091V8.73938ZM8.19329 20.4831C8.19329 20.1209 8.04942 19.7736 7.79333 19.5175C7.53724 19.2614 7.18991 19.1175 6.82774 19.1175C6.46557 19.1175 6.11824 19.2614 5.86215 19.5175C5.60606 19.7736 5.46219 20.1209 5.46219 20.4831V23.7604C5.46219 24.5142 6.07396 25.1259 6.82774 25.1259H10.1051C10.4672 25.1259 10.8145 24.9821 11.0706 24.726C11.3267 24.4699 11.4706 24.1226 11.4706 23.7604C11.4706 23.3982 11.3267 23.0509 11.0706 22.7948C10.8145 22.5387 10.4672 22.3948 10.1051 22.3948H8.19329V20.4831ZM10.9244 20.21C10.9244 19.4562 11.5361 18.8444 12.2899 18.8444H15.5672C16.321 18.8444 16.9328 19.4562 16.9328 20.21V23.4873C16.9328 23.8494 16.7889 24.1968 16.5328 24.4529C16.2767 24.709 15.9294 24.8528 15.5672 24.8528C15.2051 24.8528 14.8577 24.709 14.6016 24.4529C14.3456 24.1968 14.2017 23.8494 14.2017 23.4873V21.5755H12.2899C11.9278 21.5755 11.5804 21.4316 11.3243 21.1756C11.0682 20.9195 10.9244 20.5721 10.9244 20.21ZM21.8487 6.82762C21.8487 6.46545 21.7049 6.11812 21.4488 5.86203C21.1927 5.60594 20.8454 5.46207 20.4832 5.46207C20.121 5.46207 19.7737 5.60594 19.5176 5.86203C19.2615 6.11812 19.1177 6.46545 19.1177 6.82762V10.1049C19.1177 10.8587 19.7294 11.4705 20.4832 11.4705H23.7605C24.1227 11.4705 24.47 11.3266 24.7261 11.0705C24.9822 10.8144 25.1261 10.4671 25.1261 10.1049C25.1261 9.74276 24.9822 9.39543 24.7261 9.13934C24.47 8.88325 24.1227 8.73938 23.7605 8.73938H21.8487V6.82762ZM19.1177 14.4747C19.1177 13.7209 19.7294 13.1091 20.4832 13.1091H23.7605C24.5143 13.1091 25.1261 13.7209 25.1261 14.4747V17.752C25.1261 18.1142 24.9822 18.4615 24.7261 18.7176C24.47 18.9737 24.1227 19.1175 23.7605 19.1175C23.3983 19.1175 23.051 18.9737 22.7949 18.7176C22.5388 18.4615 22.395 18.1142 22.395 17.752V15.8402H20.4832C20.121 15.8402 19.7737 15.6964 19.5176 15.4403C19.2615 15.1842 19.1177 14.8368 19.1177 14.4747ZM21.8487 20.4831C21.8487 20.1209 21.7049 19.7736 21.4488 19.5175C21.1927 19.2614 20.8454 19.1175 20.4832 19.1175C20.121 19.1175 19.7737 19.2614 19.5176 19.5175C19.2615 19.7736 19.1177 20.1209 19.1177 20.4831V23.7604C19.1177 24.5142 19.7294 25.1259 20.4832 25.1259H23.7605C24.1227 25.1259 24.47 24.9821 24.7261 24.726C24.9822 24.4699 25.1261 24.1226 25.1261 23.7604C25.1261 23.3982 24.9822 23.0509 24.7261 22.7948C24.47 22.5387 24.1227 22.3948 23.7605 22.3948H21.8487V20.4831ZM28.4034 20.4831C29.1572 20.4831 29.7689 21.0948 29.7689 21.8486V26.2184C29.7689 27.16 29.3949 28.0631 28.729 28.7289C28.0632 29.3947 27.1601 29.7688 26.2185 29.7688H21.8487C21.4866 29.7688 21.1392 29.6249 20.8832 29.3688C20.6271 29.1127 20.4832 28.7654 20.4832 28.4032C20.4832 28.0411 20.6271 27.6938 20.8832 27.4377C21.1392 27.1816 21.4866 27.0377 21.8487 27.0377H26.2185C26.4358 27.0377 26.6442 26.9514 26.7978 26.7977C26.9515 26.6441 27.0378 26.4357 27.0378 26.2184V21.8486C27.0378 21.0948 27.6496 20.4831 28.4034 20.4831ZM3.55043 21.8486C3.55043 21.4865 3.40656 21.1391 3.15047 20.883C2.89438 20.6269 2.54705 20.4831 2.18488 20.4831C1.82272 20.4831 1.47538 20.6269 1.2193 20.883C0.963206 21.1391 0.819336 21.4865 0.819336 21.8486V26.2184C0.819336 27.16 1.1934 28.0631 1.85923 28.7289C2.52506 29.3947 3.42813 29.7688 4.36976 29.7688H8.7395C9.10167 29.7688 9.449 29.6249 9.70509 29.3688C9.96118 29.1127 10.1051 28.7654 10.1051 28.4032C10.1051 28.0411 9.96118 27.6938 9.70509 27.4377C9.449 27.1816 9.10167 27.0377 8.7395 27.0377H4.36976C4.15246 27.0377 3.94406 26.9514 3.7904 26.7977C3.63675 26.6441 3.55043 26.4357 3.55043 26.2184V21.8486Z" fill="white"/>
</svg>
