<svg width="24" height="24" viewBox="0 0 24 24" fill="none" xmlns="http://www.w3.org/2000/svg">
<path d="M15.553 15.553C16.2086 14.8974 16.7287 14.1191 17.0835 13.2624C17.4383 12.4058 17.6209 11.4877 17.6209 10.5605C17.6209 9.63333 17.4383 8.71522 17.0835 7.8586C16.7287 7.00199 16.2086 6.22365 15.553 5.56802C14.8973 4.9124 14.119 4.39233 13.2624 4.03751C12.4058 3.68269 11.4877 3.50006 10.5605 3.50006C9.63327 3.50006 8.71515 3.68269 7.85854 4.03751C7.00192 4.39233 6.22359 4.9124 5.56796 5.56802C4.24387 6.89212 3.5 8.68797 3.5 10.5605C3.5 12.4331 4.24387 14.2289 5.56796 15.553C6.89205 16.8771 8.68791 17.621 10.5605 17.621C12.433 17.621 14.2289 16.8771 15.553 15.553ZM15.553 15.553L20 20" stroke="#4E555B" stroke-width="1.5" stroke-linecap="round" stroke-linejoin="round"/>
</svg>
