<svg width="24" height="24" viewBox="0 0 24 24" fill="none" xmlns="http://www.w3.org/2000/svg">
<path fill-rule="evenodd" clip-rule="evenodd" d="M7.99999 3.758C7.99999 3.39565 8.0714 3.03684 8.21012 2.7021C8.34885 2.36735 8.55218 2.06322 8.8085 1.80709C9.06481 1.55096 9.36909 1.34785 9.70394 1.20937C10.0388 1.07088 10.3976 0.999738 10.76 1H13.243C13.9743 1.00027 14.6755 1.29096 15.1925 1.80815C15.7096 2.32535 16 3.02671 16 3.758C16 4.342 16.632 4.707 17.138 4.415C17.4517 4.23385 17.798 4.11628 18.1572 4.069C18.5164 4.02172 18.8813 4.04566 19.2312 4.13945C19.5811 4.23324 19.9091 4.39505 20.1965 4.61562C20.4838 4.8362 20.7249 5.11123 20.906 5.425L22.147 7.575C22.3281 7.88871 22.4457 8.23504 22.493 8.5942C22.5403 8.95336 22.5163 9.31832 22.4225 9.66823C22.3288 10.0181 22.1669 10.3461 21.9464 10.6335C21.7258 10.9209 21.4508 11.162 21.137 11.343C21.0215 11.4095 20.9256 11.5052 20.8589 11.6205C20.7922 11.7359 20.757 11.8668 20.757 12C20.757 12.1332 20.7922 12.2641 20.8589 12.3795C20.9256 12.4948 21.0215 12.5905 21.137 12.657C21.4508 12.8381 21.7258 13.0791 21.9464 13.3665C22.1669 13.6539 22.3288 13.9819 22.4225 14.3318C22.5163 14.6817 22.5403 15.0466 22.493 15.4058C22.4457 15.765 22.3281 16.1113 22.147 16.425L20.906 18.575C20.7249 18.8888 20.4838 19.1638 20.1965 19.3844C19.9091 19.605 19.5811 19.7668 19.2312 19.8606C18.8813 19.9543 18.5164 19.9783 18.1572 19.931C17.798 19.8837 17.4517 19.7661 17.138 19.585C17.0227 19.5182 16.8918 19.483 16.7586 19.4829C16.6253 19.4828 16.4944 19.5178 16.379 19.5844C16.2636 19.651 16.1678 19.7469 16.1013 19.8624C16.0347 19.9778 15.9998 20.1087 16 20.242C16 20.9735 15.7094 21.675 15.1922 22.1922C14.675 22.7094 13.9735 23 13.242 23H10.759C10.3967 23.0001 10.038 22.9289 9.70324 22.7903C9.36851 22.6518 9.06436 22.4487 8.80815 22.1926C8.55194 21.9364 8.34869 21.6324 8.21003 21.2977C8.07136 20.963 7.99999 20.6043 7.99999 20.242C8.00009 20.1089 7.96514 19.9781 7.89865 19.8628C7.83216 19.7475 7.73648 19.6517 7.62123 19.5851C7.50599 19.5185 7.37523 19.4835 7.24213 19.4834C7.10903 19.4834 6.97826 19.5184 6.86299 19.585C6.54928 19.7661 6.20295 19.8837 5.84379 19.931C5.48463 19.9783 5.11967 19.9543 4.76977 19.8606C4.41986 19.7668 4.09186 19.605 3.8045 19.3844C3.51714 19.1638 3.27604 18.8888 3.09499 18.575L1.85299 16.425C1.67184 16.1113 1.55427 15.765 1.50699 15.4058C1.45971 15.0466 1.48365 14.6817 1.57744 14.3318C1.67123 13.9819 1.83304 13.6539 2.05362 13.3665C2.27419 13.0791 2.54922 12.8381 2.86299 12.657C2.97848 12.5905 3.07442 12.4948 3.14112 12.3795C3.20783 12.2641 3.24295 12.1332 3.24295 12C3.24295 11.8668 3.20783 11.7359 3.14112 11.6205C3.07442 11.5052 2.97848 11.4095 2.86299 11.343C2.54922 11.162 2.27419 10.9209 2.05362 10.6335C1.83304 10.3461 1.67123 10.0181 1.57744 9.66823C1.48365 9.31832 1.45971 8.95336 1.50699 8.5942C1.55427 8.23504 1.67184 7.88871 1.85299 7.575L3.09499 5.425C3.27604 5.11123 3.51714 4.8362 3.8045 4.61562C4.09186 4.39505 4.41986 4.23324 4.76977 4.13945C5.11967 4.04566 5.48463 4.02172 5.84379 4.069C6.20295 4.11628 6.54928 4.23385 6.86299 4.415C6.97826 4.48155 7.10903 4.51658 7.24213 4.51655C7.37523 4.51653 7.50599 4.48146 7.62123 4.41486C7.73648 4.34827 7.83216 4.2525 7.89865 4.13719C7.96514 4.02189 8.00009 3.8911 7.99999 3.758ZM10.76 3C10.6604 2.99987 10.5617 3.01938 10.4696 3.05741C10.3775 3.09545 10.2939 3.15126 10.2234 3.22166C10.1529 3.29206 10.0969 3.37567 10.0588 3.4677C10.0206 3.55973 10.001 3.65837 10.001 3.758C10.001 5.882 7.70299 7.208 5.86399 6.147C5.77773 6.09717 5.68249 6.06483 5.58372 6.05183C5.48495 6.03883 5.38458 6.04543 5.28837 6.07125C5.19215 6.09707 5.10196 6.1416 5.02297 6.2023C4.94397 6.263 4.87772 6.33868 4.82799 6.425L3.58599 8.575C3.53616 8.66126 3.50382 8.7565 3.49082 8.85527C3.47782 8.95405 3.48442 9.05441 3.51024 9.15063C3.53606 9.24685 3.58059 9.33703 3.64129 9.41603C3.70199 9.49502 3.77767 9.56128 3.86399 9.611C5.70299 10.673 5.70299 13.327 3.86399 14.389C3.77767 14.4387 3.70199 14.505 3.64129 14.584C3.58059 14.663 3.53606 14.7532 3.51024 14.8494C3.48442 14.9456 3.47782 15.046 3.49082 15.1447C3.50382 15.2435 3.53616 15.3387 3.58599 15.425L4.82799 17.575C4.87772 17.6613 4.94397 17.737 5.02297 17.7977C5.10196 17.8584 5.19215 17.9029 5.28837 17.9288C5.38458 17.9546 5.48495 17.9612 5.58372 17.9482C5.68249 17.9352 5.77773 17.9028 5.86399 17.853C7.70199 16.79 9.99999 18.118 9.99999 20.242C9.99999 20.66 10.34 21 10.759 21H13.242C13.661 21 14 20.66 14 20.242C14 18.118 16.299 16.792 18.138 17.852C18.2242 17.9019 18.3194 17.9343 18.4181 17.9473C18.5168 17.9604 18.6172 17.9539 18.7134 17.9282C18.8096 17.9025 18.8998 17.858 18.9788 17.7974C19.0579 17.7368 19.1242 17.6612 19.174 17.575L20.415 15.425C20.4649 15.3388 20.4973 15.2436 20.5103 15.1449C20.5234 15.0462 20.5169 14.9458 20.4912 14.8496C20.4654 14.7534 20.421 14.6632 20.3604 14.5842C20.2998 14.5051 20.2242 14.4388 20.138 14.389C18.298 13.327 18.298 10.673 20.138 9.611C20.2242 9.56119 20.2998 9.49488 20.3604 9.41584C20.421 9.33681 20.4654 9.24661 20.4912 9.1504C20.5169 9.05419 20.5234 8.95385 20.5103 8.85512C20.4973 8.75639 20.4649 8.6612 20.415 8.575L19.174 6.425C19.1243 6.33868 19.058 6.263 18.979 6.2023C18.9 6.1416 18.8098 6.09707 18.7136 6.07125C18.6174 6.04543 18.517 6.03883 18.4183 6.05183C18.3195 6.06483 18.2243 6.09717 18.138 6.147C16.298 7.21 14 5.882 14 3.758C14 3.55697 13.9201 3.36417 13.778 3.22201C13.6358 3.07986 13.443 3 13.242 3H10.76ZM12 9C11.2043 9 10.4413 9.31607 9.87867 9.87868C9.31606 10.4413 8.99999 11.2044 8.99999 12C8.99999 12.7957 9.31606 13.5587 9.87867 14.1213C10.4413 14.6839 11.2043 15 12 15C12.7956 15 13.5587 14.6839 14.1213 14.1213C14.6839 13.5587 15 12.7957 15 12C15 11.2044 14.6839 10.4413 14.1213 9.87868C13.5587 9.31607 12.7956 9 12 9ZM6.99999 12C6.99999 10.6739 7.52678 9.40215 8.46446 8.46447C9.40214 7.52678 10.6739 7 12 7C13.3261 7 14.5978 7.52678 15.5355 8.46447C16.4732 9.40215 17 10.6739 17 12C17 13.3261 16.4732 14.5979 15.5355 15.5355C14.5978 16.4732 13.3261 17 12 17C10.6739 17 9.40214 16.4732 8.46446 15.5355C7.52678 14.5979 6.99999 13.3261 6.99999 12Z" fill="white"/>
</svg>
