<svg width="24" height="24" viewBox="0 0 24 24" fill="none" xmlns="http://www.w3.org/2000/svg">
<g clip-path="url(#clip0_1_664)">
<path d="M19.2269 11.7586C18.5689 12.4546 18.1382 13.8033 18.2682 14.754L18.8629 19.048C18.9942 19.9993 18.3956 20.4393 17.5322 20.0273L13.6316 18.1633C12.7682 17.75 11.3596 17.756 10.4982 18.1753L6.61422 20.07C5.75356 20.4893 5.15222 20.0526 5.27622 19.102L5.83822 14.8026C5.96222 13.8513 5.52156 12.5066 4.85822 11.8153L1.86222 8.68997C1.19822 7.99864 1.42556 7.28864 2.36556 7.11331L6.61222 6.32131C7.55222 6.14598 8.68956 5.30931 9.14089 4.46198L11.1749 0.637309C11.6249 -0.210025 12.3676 -0.212025 12.8236 0.631309L14.8869 4.43998C15.3442 5.28331 16.4869 6.11131 17.4296 6.27864L21.6816 7.03931C22.6229 7.20731 22.8556 7.91531 22.1976 8.61197L19.2269 11.7586Z" fill="#FFAC33"/>
<path d="M6.52217 1.45403C7.20417 2.39603 8.15284 4.73203 7.66684 5.08536C7.1815 5.43936 5.26217 3.81203 4.58017 2.87003C3.89817 1.92803 3.95684 1.09136 4.49284 0.700694C5.02884 0.309361 5.8395 0.512694 6.52217 1.45403ZM19.4208 2.87003C18.7395 3.81203 16.8202 5.44003 16.3335 5.08469C15.8475 4.73136 16.7968 2.39603 17.4795 1.45469C18.1615 0.512028 18.9715 0.308694 19.5082 0.700694C20.0435 1.09136 20.1015 1.92803 19.4208 2.87003ZM11.0835 22.194C11.0828 21.03 11.6822 18.58 12.2842 18.58C12.8822 18.58 13.4828 21.03 13.4822 22.1934C13.4822 23.358 12.9462 24.0014 12.2822 24C11.6195 24.0014 11.0835 23.3587 11.0835 22.194ZM21.8695 16.0194C20.7662 15.66 18.6308 14.3307 18.8168 13.756C19.0015 13.184 21.5082 13.3687 22.6102 13.7287C23.7135 14.0887 24.1575 14.7987 23.9522 15.4327C23.7468 16.066 22.9728 16.3794 21.8695 16.0194ZM1.38884 13.7294C2.49217 13.3694 4.99817 13.1847 5.18484 13.7587C5.36884 14.33 3.23284 15.6614 2.13084 16.02C1.02817 16.38 0.252168 16.0667 0.0488351 15.4334C-0.156498 14.8 0.284835 14.09 1.38884 13.7294Z" fill="#FFD983"/>
</g>
<defs>
<clipPath id="clip0_1_664">
<rect width="24" height="24" fill="white"/>
</clipPath>
</defs>
</svg>
