<svg width="125" height="111" viewBox="0 0 125 111" fill="none" xmlns="http://www.w3.org/2000/svg">
<path d="M124.337 61.4114L114.924 8.02881C114.093 3.31588 109.994 0 105.369 0C104.809 0 22.9399 14.3841 22.9399 14.3841C17.6566 15.3158 14.1287 20.3541 15.0604 25.6374L15.9677 30.7838H89.8551C99.2287 30.7838 106.855 38.4098 106.855 47.7834V54.5953V71.1212V74.3576L116.457 72.6644C121.741 71.7329 125.268 66.6947 124.337 61.4114Z" fill="#2E6DA1"/>
<path d="M99.5683 78.4067H0V100.656C0 106.021 4.3492 110.37 9.71398 110.37H89.8543C95.2191 110.37 99.5683 106.021 99.5683 100.656V78.4067ZM28.9202 101.618H12.3943C10.3826 101.618 8.75165 99.9874 8.75165 97.9757C8.75165 95.964 10.3826 94.3331 12.3943 94.3331H28.9202C30.9319 94.3331 32.5629 95.964 32.5629 97.9757C32.5629 99.9874 30.9322 101.618 28.9202 101.618Z" fill="#2E6DA1"/>
<path d="M0.0126953 47.3099H99.5569C99.3099 42.165 95.0609 38.0696 89.8548 38.0696H9.71477C4.50875 38.0696 0.259721 42.165 0.0126953 47.3099Z" fill="#2E6DA1"/>
<path d="M0 54.5952H99.5683V71.1211H0V54.5952Z" fill="#2E6DA1"/>
</svg>
